# xmcd CD database file
#
# Track frame offsets:
#	183
#	66295
#	88870
#	105730
#	134218
#	156170
#	182680
#	208688
#
# Disc length: 3157 seconds
#
# Revision: 0
# Processed by: cddbd v1.5.1PL0 Copyright (c) Steve Scherf et al.
# Submitted via: CDex 1.51
#
DISCID=770c5308
DTITLE=Pankaj Udhas - Chitthi Aai Hai (Live)
DYEAR=1988
DGENRE=Hindi Movie Songs
TTITLE0=Chitthi Aai Hai - Naam
TTITLE1=Baharon Mein Hawa Kyoon - Zindagi Jine Ke Liye
TTITLE2=Mithwa Re Mithwa - Jawaab
TTITLE3=Sabak Jisko Wafa Ka Yaad Hoga - Jawaab
TTITLE4=Neki Ka Phal Nek Milega - Mausam Suhana
TTITLE5=Tera Sunder Mukhda Gori - Mahboob Ki Kasam
TTITLE6=Kehne Ki Baat - Pyar Ka Pehla Sawan
TTITLE7=Ghungroo Toot Gaye (with Asha Bhosle) - Aadha Ram Aadha Ravan
EXTD=YEAR: 1988
EXTT0=
EXTT1=
EXTT2=
EXTT3=
EXTT4=
EXTT5=
EXTT6=
EXTT7=
PLAYORDER=
